<?xml version="1.0" encoding="UTF-8"?>
<svg version="1.1" xmlns="http://www.w3.org/2000/svg" width="1280" height="1280">
<path d="M0 0 C1.04722887 -0.00218016 1.04722887 -0.00218016 2.11561388 -0.00440437 C4.48455512 -0.00809033 6.85343306 -0.00456602 9.22237396 -0.0011425 C10.92606722 -0.0022933 12.62976022 -0.00388054 14.3334527 -0.00586975 C19.03811939 -0.01006879 23.74276596 -0.0079698 28.44743276 -0.00488353 C33.51224105 -0.00263197 38.57704574 -0.00610781 43.64185333 -0.00886345 C53.57291379 -0.01332277 63.50396672 -0.01234396 73.43502748 -0.00945081 C81.50231194 -0.00719741 89.56959428 -0.00688398 97.63687897 -0.00797462 C98.78267895 -0.00812786 99.92847893 -0.00828109 101.10900012 -0.00843897 C103.43627385 -0.00875867 105.76354759 -0.00908289 108.09082133 -0.00941156 C129.94161822 -0.01226683 151.79241093 -0.0089786 173.64320713 -0.00361119 C192.41434915 0.00085689 211.18548499 0.00008097 229.95662689 -0.00452995 C251.72633322 -0.00987489 273.49603588 -0.01199213 295.26574278 -0.00891769 C297.58471648 -0.00859912 299.90369018 -0.00828475 302.22266388 -0.00797462 C303.36380572 -0.00782035 304.50494756 -0.00766607 305.68066946 -0.00750712 C313.74334403 -0.00664173 321.80601628 -0.00810533 329.86869049 -0.01045418 C339.68709897 -0.01325149 349.50549946 -0.01251538 359.32390702 -0.00717343 C364.33860218 -0.00453548 369.35328397 -0.00353293 374.36797905 -0.00682259 C378.95088157 -0.00978363 383.53375824 -0.00819597 388.11665839 -0.00284503 C389.78218011 -0.00172002 391.44770397 -0.00231386 393.11322433 -0.00472082 C395.36202906 -0.00772357 397.61074301 -0.00468164 399.85954285 0 C401.74005411 0.00024353 401.74005411 0.00024353 403.65855551 0.00049198 C406.42977142 0.12584114 406.42977142 0.12584114 407.42977142 1.12584114 C407.53042062 3.20457972 407.55901901 5.28680641 407.56119919 7.36797905 C407.56427814 8.3621039 407.56427814 8.3621039 407.56741929 9.37631208 C407.57313017 11.62509495 407.57162701 13.87381737 407.57021332 16.12260628 C407.57279473 17.74034771 407.57580726 19.35808851 407.57921672 20.97582841 C407.58731844 25.44400923 407.58907808 29.91217402 407.58981419 34.38036132 C407.59165964 39.19212704 407.59920514 44.00388434 407.6059494 48.81564522 C407.61956326 59.35645208 407.62556428 69.89725515 407.62996006 80.43806934 C407.63272152 87.02796637 407.63695911 93.61786192 407.64146423 100.20775795 C407.65366879 118.46934988 407.6639606 136.73094062 407.66733932 154.99253654 C407.66755889 156.16284779 407.66777846 157.33315903 407.66800468 158.53893425 C407.66822295 159.71203218 407.66844123 160.88513011 407.66866612 162.09377646 C407.66910959 164.47083839 407.66955615 166.84790031 407.6700058 169.22496223 C407.67022723 170.40406379 407.67044866 171.58316536 407.6706768 172.79799727 C407.67461178 191.83844684 407.69202054 210.87885783 407.71536532 229.91929254 C407.73916518 249.49015052 407.75154536 269.06098925 407.75270724 288.63186193 C407.75362002 299.61041372 407.7592699 310.58891548 407.77752686 321.56745338 C407.79304579 330.93272776 407.79798026 340.29793669 407.78978875 349.66322151 C407.78592134 354.4302977 407.786616 359.19724262 407.8008461 363.96430206 C407.86064954 385.24387005 407.22102187 405.99663524 404.42977142 427.12584114 C404.19837959 428.9168831 404.19837959 428.9168831 403.96231318 430.74410772 C401.82600213 447.17117671 398.67183289 463.11394168 394.42977142 479.12584114 C394.01356537 480.70824593 394.01356537 480.70824593 393.58895111 482.32261848 C386.61083363 508.62812762 377.28813135 533.63868102 365.42977142 558.12584114 C365.11540131 558.77649544 364.80103119 559.42714973 364.4771347 560.09752083 C359.83050199 569.66833524 354.85402851 578.97174126 349.42977142 588.12584114 C348.80457611 589.18158333 348.1793808 590.23732552 347.53524017 591.32505989 C342.60311264 599.49169876 337.27329862 607.35150464 331.80135345 615.1634388 C330.50092752 617.02403396 329.2125977 618.89248138 327.92586517 620.76255989 C322.79440675 628.15514744 317.24741517 635.02904158 311.32039642 641.79771614 C308.67230388 644.82360789 306.1356198 647.92825439 303.61727142 651.06334114 C300.62009017 654.75716452 297.51304149 658.16357348 294.09383392 661.46568489 C292.3568933 663.19854819 290.77131814 665.00897947 289.17977142 666.87584114 C282.82021593 674.23577615 275.83379675 681.09049026 268.43367767 687.39927864 C266.17743757 689.3432516 263.9961325 691.35907632 261.80477142 693.37584114 C255.60416848 698.96205507 249.05147599 704.05389722 242.42977142 709.12584114 C241.78701263 709.62019661 241.14425385 710.11455208 240.48201752 710.62388802 C231.04857567 717.86139413 221.40665714 724.66035717 211.42977142 731.12584114 C210.44106049 731.77423958 209.45234955 732.42263802 208.43367767 733.09068489 C186.47350605 747.32585997 162.16917429 759.46745066 137.5528183 768.34898567 C135.37249096 769.14680094 133.20548486 769.97443241 131.03914642 770.80943489 C98.40439457 783.29988308 63.8846108 791.04062007 29.17977142 794.81334114 C28.11202484 794.93282112 27.04427826 795.0523011 25.94417572 795.17540169 C3.36076818 797.45337158 -19.45987992 797.28914987 -42.13322675 797.34452009 C-45.16260917 797.35268827 -48.1919748 797.36433878 -51.22134575 797.3759349 C-62.01860668 797.41716516 -72.81588746 797.44494794 -83.61319733 797.46959114 C-84.46671651 797.47156604 -85.32023569 797.47354094 -86.19961908 797.47557569 C-103.19800871 797.51473377 -120.19640668 797.54828892 -137.19482708 797.57065773 C-140.90418954 797.57562512 -144.61355189 797.58066985 -148.32291412 797.58580208 C-149.70544314 797.58770809 -149.70544314 797.58770809 -151.11590204 797.5896526 C-166.11123083 797.61110347 -181.10634349 797.66022886 -196.10156306 797.72004622 C-211.54746359 797.78114964 -226.99325189 797.81583875 -242.43927175 797.82513094 C-251.09238864 797.83103429 -259.74513437 797.84872204 -268.39813042 797.8965168 C-275.74765818 797.93708332 -283.09675352 797.95400664 -290.44638833 797.93986398 C-294.19263979 797.93339636 -297.93796933 797.93824546 -301.68407822 797.97373772 C-305.74642294 798.01191948 -309.80675729 797.99574039 -313.86922455 797.97435188 C-315.04926235 797.99405965 -316.22930015 798.01376742 -317.44509667 798.0340724 C-324.26707138 797.94323846 -327.99562836 797.00671989 -332.80861455 792.07265389 C-333.38994718 791.43020568 -333.97127981 790.78775748 -334.57022858 790.12584114 C-335.71063999 789.01808577 -336.85599971 787.91539907 -338.00653839 786.81816578 C-339.17104111 785.66033459 -340.33294928 784.49988953 -341.49259186 783.33719063 C-342.14054498 782.69150307 -342.7884981 782.0458155 -343.45608616 781.38056165 C-345.60326616 779.23965754 -347.74691162 777.09525102 -349.89054108 774.95079231 C-351.43830099 773.40602761 -352.9862648 771.86146717 -354.5344162 770.3170948 C-358.72012519 766.14018611 -362.90261688 761.96007036 -367.08424759 757.7790792 C-369.69621257 755.16782617 -372.30888873 752.55728691 -374.92182159 749.94700241 C-384.03420176 740.8438575 -393.1440113 731.73814925 -402.25138092 722.62999153 C-409.80792246 715.07291415 -417.36821061 707.51961263 -424.93204498 699.96983528 C-433.17763358 691.73951834 -441.41982246 683.5058179 -449.6574173 675.26749974 C-454.01562333 670.90903816 -458.37538481 666.55216016 -462.73899078 662.19910431 C-466.83425519 658.1134732 -470.92475521 654.02313308 -475.011549 649.92902946 C-476.51593231 648.42359484 -478.02204319 646.91988441 -479.52995491 645.41798401 C-481.57917565 643.37640819 -483.62221673 641.32884768 -485.66373444 639.27957344 C-486.26915636 638.67929508 -486.87457829 638.07901672 -487.49834633 637.4605481 C-491.57022858 633.35411391 -491.57022858 633.35411391 -491.57022858 631.12584114 C-487.86604983 629.89111489 -484.44440976 629.98618959 -480.58717155 629.99555588 C-479.76052008 629.99361245 -478.93386861 629.99166902 -478.08216709 629.9896667 C-475.28791991 629.98431554 -472.49372168 629.98611358 -469.69947052 629.98781013 C-467.68529633 629.98539346 -465.67112263 629.98253162 -463.65694964 629.9792608 C-458.10241622 629.9714857 -452.54789514 629.9698872 -446.99335694 629.96920967 C-441.0092317 629.96737365 -435.02511373 629.95976845 -429.04099274 629.95273018 C-419.33592139 629.94193945 -409.63085113 629.93376945 -399.9257757 629.92785007 C-383.52246873 629.91781271 -367.11918255 629.89855498 -350.71588806 629.87630768 C-344.40161665 629.86777628 -338.0873449 629.85950992 -331.7730732 629.85120392 C-331.07143896 629.85027891 -330.36980473 629.8493539 -329.64690886 629.84840086 C-312.93531573 629.82639799 -296.22372027 629.80661637 -279.51212311 629.78795052 C-278.78077814 629.78713084 -278.04943317 629.78631116 -277.29592623 629.78546664 C-260.25878167 629.76641052 -243.22163723 629.74944604 -226.18448639 629.73710823 C-225.45332355 629.73657856 -224.7221607 629.7360489 -223.96884141 629.73550318 C-218.0764398 629.73125216 -212.18403813 629.72707559 -206.29163645 629.72291838 C-181.94129544 629.70567987 -157.59098267 629.67841003 -133.24066591 629.639758 C-129.79340793 629.63429698 -126.34614976 629.62896385 -122.89889145 629.62371635 C-121.88131401 629.62216478 -121.88131401 629.62216478 -120.84317945 629.62058187 C-109.97016089 629.60432254 -99.09716228 629.59873206 -88.22413271 629.59741869 C-77.26729088 629.59590601 -66.31050458 629.58340431 -55.35368614 629.56066228 C-49.42865983 629.54870256 -43.50373107 629.54143519 -37.57869339 629.54737473 C5.24426112 629.58450032 44.60714998 626.08409443 84.42977142 609.12584114 C85.46158539 608.69005745 85.46158539 608.69005745 86.51424408 608.24547005 C88.65600322 607.33797791 90.79371511 606.42167033 92.92977142 605.50084114 C93.89983124 605.08523933 93.89983124 605.08523933 94.88948822 604.66124153 C112.9778292 596.74568789 130.42201552 584.88667314 145.42977142 572.12584114 C146.17742767 571.49420052 146.92508392 570.86255989 147.69539642 570.21177864 C149.63178591 568.54221448 151.53342375 566.8406647 153.42977142 565.12584114 C154.21738861 564.42974739 155.0050058 563.73365364 155.81649017 563.01646614 C165.61653593 554.57919167 165.61653593 554.57919167 174.05867767 544.86412239 C174.51113861 544.29048958 174.96359955 543.71685677 175.42977142 543.12584114 C176.08977142 543.12584114 176.74977142 543.12584114 177.42977142 543.12584114 C177.65664642 542.59603645 177.88352142 542.06623177 178.11727142 541.52037239 C179.86710071 538.3279755 182.14105636 535.62620142 184.42977142 532.81334114 C203.65231255 508.67230452 217.68453598 481.33146959 227.42977142 452.12584114 C227.78555267 451.15259895 228.14133392 450.17935677 228.50789642 449.17662239 C240.82519928 414.91301405 239.90038502 378.64647224 239.93624878 342.79801369 C239.94459342 337.1817758 239.96898511 331.56564757 239.99190521 325.94944954 C240.04950668 309.61246151 240.08190761 293.27539244 240.11727142 276.93834114 C240.22039642 240.37021614 240.32352142 203.80209114 240.42977142 166.12584114 C158.58977142 166.12584114 76.74977142 166.12584114 -7.57022858 166.12584114 C-8.40674986 161.94323474 -8.68434955 158.66847601 -8.65924835 154.45707893 C-8.65546301 153.47167653 -8.65546301 153.47167653 -8.6516012 152.46636701 C-8.64190693 150.27305045 -8.6248692 148.07985416 -8.60782623 145.88658333 C-8.59931607 144.31113596 -8.59124507 142.73568616 -8.58358002 141.16023445 C-8.56141562 136.88783368 -8.53274104 132.61549946 -8.50262499 128.34314823 C-8.47195105 123.87532524 -8.44633765 119.40747273 -8.4199295 114.93962288 C-8.37476787 107.44112157 -8.3252857 99.94265778 -8.27335358 92.44420052 C-8.21330008 83.76396945 -8.16055043 75.08371656 -8.11158526 66.4034164 C-8.06431877 58.06062879 -8.01148022 49.71788508 -7.95622635 41.37514687 C-7.93280705 37.82013746 -7.91144227 34.26512433 -7.89171982 30.71009254 C-7.86831231 26.5305933 -7.84007617 22.35115455 -7.80803108 18.17171288 C-7.79703927 16.63376044 -7.78775861 15.09579474 -7.78026772 13.55782127 C-7.76981282 11.46737358 -7.75330628 9.37706186 -7.73517609 7.28666878 C-7.72742472 6.11418964 -7.71967335 4.94171051 -7.71168709 3.73370171 C-7.43827235 -1.30683982 -4.40231638 0.00057011 0 0 Z " fill="#7E90FE" transform="translate(682.5702285766602,376.87415885925293)"/>
<path d="M0 0 C1.72351597 -0.00067559 3.44703184 -0.00164773 5.17054749 -0.00289917 C8.74285815 -0.0043582 12.31514349 -0.00227616 15.88745117 0.00244141 C20.47405675 0.00820309 25.06060463 0.00480833 29.64720821 -0.00113106 C33.18750959 -0.0047303 36.72779706 -0.00360217 40.26809883 -0.00100327 C41.96146209 -0.00033557 43.65482661 -0.00115695 45.3481884 -0.00348282 C47.69562059 -0.00600581 50.04295594 -0.00217684 52.39038086 0.00341797 C53.09100647 0.00139374 53.79163208 -0.00063049 54.51348877 -0.00271606 C59.29587955 0.0185358 59.29587955 0.0185358 60.41015625 1.1328125 C60.50706032 3.25908048 60.53202447 5.38863069 60.53041077 7.5171051 C60.5316924 8.52906595 60.5316924 8.52906595 60.53299993 9.56147045 C60.53465664 11.83861412 60.52913029 14.1156853 60.52368164 16.39282227 C60.52339978 18.01856484 60.52355747 19.64430755 60.52412415 21.27005005 C60.52441218 25.69754663 60.51851452 30.12501637 60.51155019 34.55250669 C60.50531761 39.17432092 60.50471293 43.7961357 60.50352478 48.41795349 C60.50041118 57.17629487 60.4921974 65.93462383 60.48217529 74.69295973 C60.47101505 84.66135263 60.46550393 94.62974611 60.46047986 104.5981437 C60.45001481 125.10970691 60.43241482 145.62125892 60.41015625 166.1328125 C59.5895018 166.13867874 58.76884735 166.14454498 57.92332458 166.15058899 C50.03024185 166.20950148 42.13741322 166.28209453 34.24458218 166.36852741 C30.19082711 166.41247772 26.13715555 166.45187657 22.08325195 166.47924805 C5.4910722 166.59473623 -11.01475785 166.89643755 -27.5390625 168.5 C-28.75364639 168.61664505 -29.96823029 168.7332901 -31.21961975 168.85346985 C-82.41136689 174.28226767 -131.16393916 196.8911345 -169.60571289 230.83154297 C-173.38497491 234.1328125 -173.38497491 234.1328125 -175.58984375 234.1328125 C-175.84378906 234.72578125 -176.09773437 235.31875 -176.359375 235.9296875 C-177.72610749 238.37678949 -179.10727357 239.62629204 -181.27734375 241.3828125 C-185.51336946 244.98229767 -189.01028955 248.89368593 -192.58984375 253.1328125 C-193.50614865 254.17724334 -194.4242619 255.22008922 -195.34375 256.26171875 C-202.31735579 264.20604685 -208.57386269 272.44769599 -214.58984375 281.1328125 C-215.46008903 282.33524994 -216.33119229 283.53706686 -217.203125 284.73828125 C-219.11378113 287.40921391 -220.79716978 290.10339545 -222.33984375 293.0078125 C-222.83871094 293.94367188 -223.33757812 294.87953125 -223.8515625 295.84375 C-224.42519531 296.92914063 -224.99882812 298.01453125 -225.58984375 299.1328125 C-226.32484377 300.50036411 -227.06056562 301.86752792 -227.796875 303.234375 C-228.58240156 304.70032246 -229.36755813 306.16646825 -230.15234375 307.6328125 C-230.51618164 308.30812012 -230.88001953 308.98342773 -231.25488281 309.67919922 C-250.61913093 346.08919578 -258.8409359 387.7597341 -258.69664001 428.78004456 C-258.6956415 430.1164486 -258.69509397 431.45285305 -258.69495302 432.78925747 C-258.69332178 436.42767622 -258.68548624 440.06605827 -258.67659128 443.70446551 C-258.66810749 447.64095024 -258.66555406 451.57743934 -258.66233826 455.51393127 C-258.65606079 462.32361562 -258.64633453 469.13328782 -258.63444328 475.94296455 C-258.61742544 485.79171132 -258.60790215 495.64045511 -258.60056455 505.48921334 C-258.58863835 521.47499021 -258.57369424 537.46076234 -258.55541992 553.4465332 C-258.5543298 554.40193821 -258.55323968 555.35734322 -258.55211652 556.34169989 C-258.53647937 569.92413565 -258.51787778 583.50656579 -258.49811865 597.0889961 C-258.49672533 598.04712983 -258.49533202 599.00526356 -258.49389648 599.99243164 C-258.49180619 601.42787717 -258.49180619 601.42787717 -258.48967367 602.89232159 C-258.46666339 618.83153743 -258.45133368 634.77074961 -258.4423371 650.70997947 C-258.4364782 660.53935542 -258.42408864 670.36868091 -258.40336431 680.19803696 C-258.38968728 686.92307245 -258.38316502 693.64809024 -258.38235419 700.37313951 C-258.38164829 704.25606201 -258.37760752 708.13890914 -258.36489105 712.02181244 C-258.35120022 716.22406188 -258.35284301 720.42616282 -258.35606384 724.62843323 C-258.34630214 726.48237531 -258.34630214 726.48237531 -258.33634323 728.37377077 C-258.33970863 729.49399691 -258.34307402 730.61422304 -258.3465414 731.76839542 C-258.34458913 733.22416873 -258.34458913 733.22416873 -258.34259742 734.7093516 C-258.58984375 737.1328125 -258.58984375 737.1328125 -260.58984375 740.1328125 C-263.39439487 740.5047493 -263.39439487 740.5047493 -267.04969788 740.50030518 C-267.72040375 740.50357402 -268.39110962 740.50684286 -269.08213991 740.51021075 C-271.34022434 740.51752132 -273.59766761 740.50330667 -275.85571289 740.48925781 C-277.4701295 740.49004826 -279.08454593 740.49214421 -280.69895935 740.49545288 C-285.09142022 740.50059884 -289.48364789 740.48702832 -293.87607121 740.46992588 C-298.46404162 740.45492425 -303.05200856 740.45606474 -307.63999939 740.45526123 C-315.34475706 740.45156551 -323.04942581 740.4365821 -330.75415039 740.4140625 C-340.65694578 740.3851781 -350.55966954 740.37483898 -360.46250248 740.3703804 C-368.95988431 740.36640597 -377.45725045 740.35390344 -385.95462108 740.34003353 C-388.69411798 740.33592758 -391.43361432 740.33300551 -394.17311287 740.33023834 C-398.46992575 740.3253578 -402.76669482 740.31517558 -407.0634861 740.30080032 C-408.64498245 740.29626405 -410.2264847 740.29343554 -411.80798721 740.29239273 C-413.95769376 740.29065663 -416.10728933 740.28279936 -418.25697327 740.27325439 C-419.46284623 740.27027973 -420.6687192 740.26730507 -421.91113377 740.26424026 C-424.58984375 740.1328125 -424.58984375 740.1328125 -425.58984375 739.1328125 C-425.69002875 737.33360485 -425.71908425 735.53041944 -425.72127151 733.72842598 C-425.72511266 732.54828112 -425.7289538 731.36813626 -425.73291135 730.15222943 C-425.73161162 728.18233164 -425.73161162 728.18233164 -425.73028564 726.17263794 C-425.73286718 724.77621022 -425.73587974 723.37978325 -425.73928905 721.98335731 C-425.74738956 718.12699974 -425.74915034 714.27066075 -425.74988651 710.41429567 C-425.7517322 706.26106036 -425.75927789 702.10783481 -425.76602173 697.9546051 C-425.77963533 688.85603549 -425.78563673 679.75747026 -425.79003239 670.65889215 C-425.79279422 664.96954282 -425.79703191 659.2801952 -425.80153656 653.59084702 C-425.8137417 637.82212239 -425.82403299 622.05339913 -425.82741165 606.28466988 C-425.82763122 605.27410652 -425.82785078 604.26354316 -425.828077 603.22235667 C-425.82829528 602.20939501 -425.82851356 601.19643335 -425.82873845 600.15277588 C-425.82918191 598.10022298 -425.82962847 596.04767009 -425.83007812 593.99511719 C-425.83029955 592.9769842 -425.83052098 591.95885122 -425.83074912 590.90986572 C-425.83468289 574.47407234 -425.8520876 558.0383237 -425.87543765 541.60254754 C-425.89924772 524.70530832 -425.91161816 507.8080914 -425.91277957 490.91083515 C-425.91369185 481.4335855 -425.91932873 471.95639385 -425.93759918 462.47916031 C-425.95313211 454.393285 -425.95804465 446.30748553 -425.94986108 438.2215981 C-425.94599829 434.10689769 -425.94666445 429.99234932 -425.96091843 425.87766838 C-426.11720446 377.94580108 -418.72105722 330.37367305 -402.58984375 285.1328125 C-402.28739746 284.27913086 -401.98495117 283.42544922 -401.67333984 282.54589844 C-393.28210319 259.04069273 -382.94430655 236.81076537 -370.58984375 215.1328125 C-370.13689941 214.33697754 -369.68395508 213.54114258 -369.21728516 212.72119141 C-361.74348323 199.65785488 -353.56566949 187.21922613 -344.58984375 175.1328125 C-344.13029297 174.51325684 -343.67074219 173.89370117 -343.19726562 173.25537109 C-338.18143958 166.50166269 -333.13957669 159.76587927 -327.96484375 153.1328125 C-327.35382813 152.3490625 -326.7428125 151.5653125 -326.11328125 150.7578125 C-325.35917969 149.9534375 -325.35917969 149.9534375 -324.58984375 149.1328125 C-323.92984375 149.1328125 -323.26984375 149.1328125 -322.58984375 149.1328125 C-322.32196045 148.54346924 -322.05407715 147.95412598 -321.77807617 147.34692383 C-320.57777314 145.11032055 -319.31553325 143.54715121 -317.578125 141.70703125 C-316.98451172 141.07474609 -316.39089844 140.44246094 -315.77929688 139.79101562 C-315.15990234 139.14068359 -314.54050781 138.49035156 -313.90234375 137.8203125 C-313.30228516 137.18158203 -312.70222656 136.54285156 -312.08398438 135.88476562 C-307.99835978 131.55338918 -303.81836466 127.32431928 -299.58984375 123.1328125 C-298.80609375 122.3490625 -298.02234375 121.5653125 -297.21484375 120.7578125 C-296.34859375 119.8915625 -295.48234375 119.0253125 -294.58984375 118.1328125 C-293.63851562 117.14667969 -293.63851562 117.14667969 -292.66796875 116.140625 C-287.87546914 111.22916264 -282.88459999 106.79361749 -277.52734375 102.5078125 C-274.95731018 100.42991302 -272.4483868 98.30354357 -269.94824219 96.14355469 C-262.4689153 89.69961732 -254.63055103 83.85404303 -246.58984375 78.1328125 C-245.53152344 77.37226563 -244.47320312 76.61171875 -243.3828125 75.828125 C-223.115052 61.50047544 -201.03632371 48.01282738 -178.06640625 38.5703125 C-174.72662447 37.18936902 -171.47694777 35.68696628 -168.21484375 34.1328125 C-116.15643637 10.13021348 -57.05523404 -0.08001504 0 0 Z " fill="#7D8FFE" transform="translate(615.58984375,105.8671875)"/>
<path d="M0 0 C1.88132438 0.00056958 1.88132438 0.00056958 3.80065531 0.00115067 C4.49910748 -0.00000318 5.19755966 -0.00115702 5.91717705 -0.00234583 C8.28712959 -0.00501921 10.6570159 -0.00048446 13.02696508 0.00394398 C14.73137085 0.00350842 16.43577655 0.00263381 18.1401819 0.00135481 C22.846781 -0.00089324 27.55335757 0.00313535 32.2599538 0.00813287 C37.32678656 0.01243277 42.39361795 0.01099128 47.46045202 0.0102306 C56.24673097 0.00970507 65.03300252 0.01285489 73.81927961 0.01846844 C86.52291815 0.02657953 99.2265531 0.02919826 111.93019395 0.03045643 C132.5387012 0.03264757 153.14720449 0.03930932 173.75570959 0.04875904 C193.78044897 0.05793157 213.80518728 0.06501318 233.82992834 0.06926686 C235.67997801 0.06966094 235.67997801 0.06966094 237.56740243 0.07006299 C243.75455322 0.07136798 249.94170401 0.0726317 256.12885481 0.07387489 C307.49511708 0.08424942 358.86137505 0.10186941 410.22763342 0.1241985 C409.89763342 1.4441985 409.56763342 2.7641985 409.22763342 4.1241985 C409.22763342 3.4641985 409.22763342 2.8041985 409.22763342 2.1241985 C273.59763342 2.1241985 137.96763342 2.1241985 -1.77236658 2.1241985 C-1.77236658 55.5841985 -1.77236658 109.0441985 -1.77236658 164.1241985 C79.73763342 164.1241985 161.24763342 164.1241985 245.22763342 164.1241985 C245.22763342 164.4541985 245.22763342 164.7841985 245.22763342 165.1241985 C163.05763342 165.1241985 80.88763342 165.1241985 -3.77236658 165.1241985 C-4.7216418 161.32709762 -4.88453292 158.46219412 -4.86138636 154.57569081 C-4.8588628 153.91961029 -4.85633924 153.26352978 -4.8537392 152.58756804 C-4.84402394 150.39114602 -4.82698886 148.1948427 -4.80996424 145.99846607 C-4.8014564 144.42316619 -4.79338512 142.8478639 -4.78571802 141.2725597 C-4.7635304 136.99596791 -4.7348594 132.7194421 -4.704763 128.44289953 C-4.67411359 123.97240124 -4.64848445 119.50187368 -4.62206751 115.03134876 C-4.57688648 107.52687128 -4.52740354 100.02243105 -4.47549158 92.51799732 C-4.41545836 83.83040253 -4.36270307 75.14278596 -4.31372327 66.45512235 C-4.27152934 59.00368274 -4.22547785 51.55227435 -4.17615837 44.10087848 C-4.14667893 39.64693305 -4.11854544 35.19298996 -4.09385782 30.73901516 C-4.07044913 26.55542534 -4.04221266 22.37189593 -4.01016909 18.18836361 C-3.99917722 16.64879946 -3.98989658 15.10922205 -3.98240572 13.56963688 C-3.97195073 11.47694622 -3.95544408 9.38439138 -3.93731409 7.29175526 C-3.92956272 6.11797731 -3.92181135 4.94419935 -3.91382509 3.73485237 C-3.71836091 0.12750971 -3.62852017 0.16255309 0 0 Z " fill="#6F82FE" transform="translate(678.7723665833473,376.8758015036583)"/>
<path d="M0 0 C0.33 0 0.66 0 1 0 C0.67 114.84 0.34 229.68 0 348 C53.79 347.67 107.58 347.34 163 347 C163 347.99 163 348.98 163 350 C108.88 350 54.76 350 -1 350 C-1.04033135 264.78882195 -1.04033135 264.78882195 -1.04882812 229.22460938 C-1.050786 221.0842285 -1.05280648 212.94384763 -1.05493164 204.8034668 C-1.05519539 203.78320371 -1.05545914 202.76294062 -1.05573088 201.71176046 C-1.06008009 185.2407488 -1.06796387 168.76974063 -1.0771528 152.29873104 C-1.08650457 135.3948323 -1.09205885 118.49093539 -1.09408849 101.58703417 C-1.09546055 91.1565861 -1.09979401 80.7261479 -1.10791647 70.29570287 C-1.1132027 63.14300535 -1.11480001 55.99031292 -1.11350138 48.83761359 C-1.11286094 44.71102388 -1.11384227 40.58445141 -1.11920547 36.45786476 C-1.12408344 32.67697065 -1.12430982 28.89610532 -1.12089889 25.11520987 C-1.12027852 23.10572613 -1.12458085 21.09624271 -1.12908131 19.08676392 C-1.11843145 12.63732536 -0.86889996 6.39257896 0 0 Z " fill="#6378FD" transform="translate(192,496)"/>
<path d="M0 0 C0.33 0 0.66 0 1 0 C0.67 113.19 0.34 226.38 0 343 C-0.66 343.33 -1.32 343.66 -2 344 C-2.04586786 303.35358786 -2.08106498 262.70717911 -2.10213066 222.06074622 C-2.1046318 217.25224874 -2.10722047 212.44375131 -2.10986328 207.63525391 C-2.1103879 206.67804678 -2.11091252 205.72083965 -2.11145304 204.73462625 C-2.12013431 189.27508292 -2.13589162 173.81555459 -2.15430559 158.35602014 C-2.17306824 142.47020051 -2.18413012 126.5843887 -2.18817699 110.69855845 C-2.1909089 100.91149723 -2.1995089 91.12447845 -2.21583293 81.33743031 C-2.22647855 74.60840143 -2.22958366 67.8793942 -2.22700275 61.15035753 C-2.22573314 57.27934369 -2.22755342 53.40840354 -2.23841095 49.53740311 C-2.28279657 32.92485615 -1.925224 16.51960358 0 0 Z " fill="#7083FE" transform="translate(356,497)"/>
<path d="M0 0 C2 2 2 2 2.24609566 4.76049232 C2.24425207 5.9459181 2.24240849 7.13134388 2.24050903 8.35269165 C2.24222107 9.01025955 2.24393311 9.66782745 2.24569702 10.34532166 C2.24901946 12.56577233 2.23794114 14.78592435 2.22705078 17.00634766 C2.22643841 18.61857277 2.22670458 20.23079843 2.2277813 21.8430233 C2.2282339 26.17108491 2.21661954 30.49903654 2.20256042 34.82707214 C2.19119333 38.8843115 2.19063543 42.94152373 2.18920898 46.9987793 C2.17870303 58.87420084 2.15078087 70.7496018 2.125 82.625 C2.08375 109.14875 2.0425 135.6725 2 163 C83.51 163 165.02 163 249 163 C249 163.33 249 163.66 249 164 C166.83 164 84.66 164 0 164 C-0.95039953 160.19840188 -1.10973541 157.33582031 -1.08229065 153.44476318 C-1.07906152 152.78797711 -1.07583239 152.13119103 -1.07250541 151.45450234 C-1.06045023 149.25574137 -1.04107336 147.05710646 -1.02172852 144.85839844 C-1.01158361 143.28147657 -1.00189017 141.70455174 -0.99261475 140.12762451 C-0.96615493 135.8469654 -0.93337108 131.5663752 -0.89946485 127.28576946 C-0.86510087 122.81213975 -0.83653483 118.33847314 -0.80735779 113.86480713 C-0.75122466 105.39340879 -0.6898657 96.92205665 -0.62663645 88.45070863 C-0.55490571 78.80632829 -0.48898975 69.16191096 -0.42356598 59.5174861 C-0.28885456 39.67827602 -0.14682864 19.83912385 0 0 Z " fill="#657AFD" transform="translate(675,378)"/>
<path d="M0 0 C1.05058594 0.00902344 2.10117187 0.01804687 3.18359375 0.02734375 C3.96863281 0.03894531 4.75367188 0.05054688 5.5625 0.0625 C2.10077842 3.52422158 -1.45053271 3.17953077 -6.22107989 3.20426419 C-6.99509675 3.20324153 -7.76911362 3.20221886 -8.56658554 3.2011652 C-9.39681565 3.20400742 -10.22704576 3.20684964 -11.08243436 3.20977798 C-13.88258252 3.21814309 -16.68268941 3.21939462 -19.48284912 3.22071838 C-21.50332972 3.2252825 -23.52380938 3.23028229 -25.54428792 3.23568195 C-31.11061804 3.24928963 -36.67694204 3.25668902 -42.24328446 3.26310861 C-48.24055085 3.27110101 -54.23780445 3.28480277 -60.23506165 3.29782104 C-70.63044557 3.31960027 -81.02583179 3.337774 -91.4212265 3.35342598 C-102.32549273 3.36985921 -113.22975231 3.38833868 -124.13401031 3.40955925 C-125.15048324 3.41153566 -125.15048324 3.41153566 -126.18749097 3.413552 C-129.62883716 3.42025396 -133.07018327 3.42699255 -136.51152936 3.43374526 C-160.89521235 3.48152566 -185.27890154 3.5247057 -209.66259766 3.56518555 C-233.35303193 3.60452501 -257.04346107 3.64594501 -280.73388672 3.69018555 C-281.46395395 3.69154808 -282.19402119 3.69291061 -282.94621168 3.69431442 C-290.27775583 3.70799964 -297.60929991 3.72172719 -304.94084393 3.73548577 C-319.87643537 3.76351334 -334.81202734 3.7912583 -349.74761963 3.8188324 C-350.43435455 3.8201006 -351.12108948 3.8213688 -351.82863455 3.82267542 C-397.69824804 3.90735081 -443.56787318 3.98541729 -489.4375 4.0625 C-489.4375 3.4025 -489.4375 2.7425 -489.4375 2.0625 C-487.93068473 2.05989563 -487.93068473 2.05989563 -486.39342874 2.05723864 C-442.1265435 1.98066314 -397.85966048 1.90286661 -353.5927887 1.8188324 C-352.58768569 1.81692488 -352.58768569 1.81692488 -351.56227757 1.81497882 C-337.00025017 1.78733515 -322.4382232 1.75947211 -307.87619665 1.73138306 C-300.73509146 1.71760974 -293.59398619 1.70388491 -286.45288086 1.69018555 C-285.74225105 1.68882146 -285.03162124 1.68745738 -284.2994572 1.68605196 C-261.26152874 1.64185242 -238.22359593 1.60085484 -215.1856587 1.56151587 C-191.51327231 1.52107664 -167.84089401 1.47741079 -144.16852114 1.42967889 C-128.91218023 1.39892357 -113.65583914 1.37101226 -98.39948542 1.34732103 C-88.40471212 1.33152219 -78.40994996 1.31211077 -68.41518902 1.28983159 C-62.64433807 1.27707539 -56.87349567 1.26593779 -51.10263443 1.25908089 C-45.82176273 1.25277111 -40.54092056 1.24193582 -35.26006509 1.2274667 C-33.34743959 1.22303128 -31.43480935 1.22027161 -29.52217894 1.21933801 C-26.92565288 1.21782781 -24.32921219 1.21025656 -21.73270321 1.2011652 C-20.98742387 1.20218787 -20.24214454 1.20321054 -19.47428098 1.20426419 C-12.91467368 1.16967578 -6.55986354 -0.07370633 0 0 Z " fill="#6D82FE" transform="translate(682.4375,1006.9375)"/>
<path d="M0 0 C4.29028204 1.65662584 7.15849137 4.88656165 10.32745361 8.08694458 C10.95973838 8.71752049 11.59202314 9.34809641 12.24346805 9.99778068 C14.36403601 12.11505054 16.47736981 14.23939676 18.59082031 16.36376953 C20.10820286 17.88171613 21.62602575 19.39922266 23.14425659 20.9163208 C27.26821367 25.0397031 31.38596706 29.16923114 35.50265598 33.29986811 C39.80457722 37.6142758 44.11214743 41.92303577 48.41912842 46.23239136 C56.57576335 54.39524718 64.72728581 62.56318874 72.8769958 70.73295772 C82.15471317 80.0330151 91.43809736 89.32740694 100.72196817 98.62132096 C119.82096949 117.7412381 138.91282292 136.86827937 158 156 C157.67 156.99 157.34 157.98 157 159 C136.52368827 138.57034278 116.05305471 118.13501135 95.58922577 97.69285011 C93.70028489 95.80596229 91.81133587 93.91908264 89.92236328 92.03222656 C89.45283676 91.56322466 88.98331024 91.09422277 88.49955565 90.61100869 C80.8880026 83.00816812 73.27292602 75.40886613 65.65655094 67.81085654 C57.84673307 60.01971431 50.04076682 52.22472879 42.23817396 44.42635095 C37.85326831 40.04405989 33.46659999 35.66356568 29.07575989 31.28722 C24.94787649 27.1728535 20.82464695 23.05388159 16.70502663 18.93124199 C15.1877525 17.41452068 13.66874786 15.89952835 12.14793968 14.38635063 C10.08078698 12.329067 8.01980253 10.26580094 5.96032715 8.20083618 C5.34944827 7.59578298 4.73856938 6.99072978 4.10917902 6.36734164 C0 2.22824242 0 2.22824242 0 0 Z " fill="#7084FE" transform="translate(195,1012)"/>
<path d="M0 0 C0 0.66 0 1.32 0 2 C-11.03691812 4.25572049 -21.78461253 4.20127315 -33 4 C-33 3.67 -33 3.34 -33 3 C-29.10429463 2.56930749 -25.20821658 2.14217538 -21.31176758 1.71826172 C-19.33850027 1.50283847 -17.36553649 1.28464081 -15.39257812 1.06640625 C-13.52182617 0.86337891 -13.52182617 0.86337891 -11.61328125 0.65625 C-9.89298706 0.46772461 -9.89298706 0.46772461 -8.13793945 0.27539062 C-5.40157597 0.03524295 -2.74416227 -0.05393931 0 0 Z " fill="#7285FE" transform="translate(729,1167)"/>
<path d="M0 0 C0.66 0.33 1.32 0.66 2 1 C-1.66717359 5.00055301 -5.06746451 7.66825595 -10 10 C-12.21484375 9.6015625 -12.21484375 9.6015625 -14 9 C-11.71439353 7.4693001 -9.42237333 5.95034956 -7.125 4.4375 C-6.14853516 3.78104492 -6.14853516 3.78104492 -5.15234375 3.11132812 C-3.47374503 2.01245164 -1.73976613 0.9992182 0 0 Z " fill="#8598FE" transform="translate(809,963)"/>
<path d="M0 0 C0.33 0.99 0.66 1.98 1 3 C-0.43359375 5.26171875 -0.43359375 5.26171875 -2.4375 7.6875 C-3.09621094 8.49574219 -3.75492188 9.30398438 -4.43359375 10.13671875 C-5.20896484 11.05904297 -5.20896484 11.05904297 -6 12 C-6.99 11.67 -7.98 11.34 -9 11 C-6.03 7.37 -3.06 3.74 0 0 Z " fill="#7487FE" transform="translate(996,1012)"/>
<path d="M0 0 C0 3.80345877 -1.13786331 4.77701015 -3.5 7.6875 C-4.47453125 8.89986328 -4.47453125 8.89986328 -5.46875 10.13671875 C-5.9740625 10.75160156 -6.479375 11.36648438 -7 12 C-7.33 11.01 -7.66 10.02 -8 9 C-6.85546875 6.9921875 -6.85546875 6.9921875 -5.1875 4.875 C-4.64480469 4.17117188 -4.10210938 3.46734375 -3.54296875 2.7421875 C-2 1 -2 1 0 0 Z " fill="#7188FE" transform="translate(878,897)"/>
<path d="M0 0 C-2.18614424 2.18614424 -3.53879949 2.68256535 -6.4375 3.625 C-7.61119141 4.01558594 -7.61119141 4.01558594 -8.80859375 4.4140625 C-11 5 -11 5 -14 5 C-14 4.34 -14 3.68 -14 3 C-9.07015675 0.96006486 -5.42039575 -0.40652968 0 0 Z " fill="#7285FE" transform="translate(761,991)"/>
<path d="M0 0 C-2.7343066 2.7343066 -4.76993555 2.95340665 -8.578125 3.09765625 C-9.45984375 3.08605469 -10.3415625 3.07445312 -11.25 3.0625 C-12.14203125 3.05347656 -13.0340625 3.04445313 -13.953125 3.03515625 C-14.62859375 3.02355469 -15.3040625 3.01195312 -16 3 C-10.9749232 -0.3500512 -5.9145821 -0.11829164 0 0 Z " fill="#7188FE" transform="translate(580,273)"/>
<path d="M0 0 C2.80435411 -0.05632424 5.35146678 0.04185298 8.125 0.3125 C9.25615234 0.4043457 9.25615234 0.4043457 10.41015625 0.49804688 C12.27463438 0.6514533 14.13752498 0.82393459 16 1 C16 1.33 16 1.66 16 2 C10.06 2.33 4.12 2.66 -2 3 C-1.34 2.01 -0.68 1.02 0 0 Z " fill="#909EFE" transform="translate(692,1170)"/>
<path d="M0 0 C0.99 0.33 1.98 0.66 3 1 C0.69 3.97 -1.62 6.94 -4 10 C-4.33 8.68 -4.66 7.36 -5 6 C-4.01 5.67 -3.02 5.34 -2 5 C-1.33820153 3.01954441 -1.33820153 3.01954441 -1 1 C-0.67 0.67 -0.34 0.34 0 0 Z " fill="#84A2FE" transform="translate(410,370)"/>
<path d="M0 0 C-0.99 0.495 -0.99 0.495 -2 1 C-2.33 1.66 -2.66 2.32 -3 3 C-4.32 2.67 -5.64 2.34 -7 2 C-7 2.66 -7 3.32 -7 4 C-9.64 3.67 -12.28 3.34 -15 3 C-15 2.67 -15 2.34 -15 2 C-13.43883181 1.66048381 -11.87598662 1.32867456 -10.3125 1 C-9.44238281 0.814375 -8.57226562 0.62875 -7.67578125 0.4375 C-5.06287036 0.01027953 -2.64186962 -0.07616201 0 0 Z " fill="#8F9DFE" transform="translate(720,1002)"/>
<path d="M0 0 C0.33 0 0.66 0 1 0 C1 2.64 1 5.28 1 8 C0.34 8 -0.32 8 -1 8 C-1.33 9.98 -1.66 11.96 -2 14 C-2.33 14 -2.66 14 -3 14 C-2.48594831 9.03083364 -1.76615118 4.70973649 0 0 Z " fill="#6D82FE" transform="translate(1074,856)"/>
<path d="M0 0 C0 4.03223106 -1.64129026 5.80880447 -4 9 C-4.99 9.495 -4.99 9.495 -6 10 C-5.58578031 5.16743695 -3.53586014 3.17320782 0 0 Z " fill="#859BFE" transform="translate(306,239)"/>
<path d="M0 0 C0 3.9519815 -1.37176172 5.14648416 -4 8 C-4.99 8.33 -5.98 8.66 -7 9 C-5.64978174 4.58110387 -3.73884332 2.65654657 0 0 Z " fill="#7285FE" transform="translate(866,913)"/>
<path d="M0 0 C1.0326802 2.78823655 1.04509293 3.8677274 0.0625 6.75 C-0.288125 7.4925 -0.63875 8.235 -1 9 C-1.99 9 -2.98 9 -4 9 C-2.94124926 5.59687262 -1.99097846 2.98646769 0 0 Z " fill="#8499FE" transform="translate(234,342)"/>
<path d="M0 0 C1.32 0.33 2.64 0.66 4 1 C1.69 2.65 -0.62 4.3 -3 6 C-3.33 5.01 -3.66 4.02 -4 3 C-2.25 1.4375 -2.25 1.4375 0 0 Z " fill="#8C9AFE" transform="translate(900,1100)"/>
<path d="M0 0 C0.33 1.32 0.66 2.64 1 4 C-1.97 6.475 -1.97 6.475 -5 9 C-4.42647107 5.12867972 -2.51295648 2.91827204 0 0 Z " fill="#7396FE" transform="translate(858,920)"/>
<path d="M0 0 C0.33 0 0.66 0 1 0 C1.25 5.625 1.25 5.625 -1 9 C-1.66 9 -2.32 9 -3 9 C-3 9.66 -3 10.32 -3 11 C-3.66 10.67 -4.32 10.34 -5 10 C-3.35 6.7 -1.7 3.4 0 0 Z " fill="#8798FE" transform="translate(896,863)"/>
<path d="M0 0 C1.94566951 3.47547073 2.07637127 5.12506344 1 9 C0.34 9 -0.32 9 -1 9 C-1.33 10.32 -1.66 11.64 -2 13 C-3.45047396 10.09905209 -2.45356803 8.44027404 -1.5625 5.375 C-1.27503906 4.37210937 -0.98757812 3.36921875 -0.69140625 2.3359375 C-0.46324219 1.56507813 -0.23507813 0.79421875 0 0 Z " fill="#8998FE" transform="translate(205,416)"/>
<path d="M0 0 C2.31 0 4.62 0 7 0 C7.33 0.99 7.66 1.98 8 3 C5.69 3 3.38 3 1 3 C0.67 2.01 0.34 1.02 0 0 Z " fill="#88A1FE" transform="translate(597,270)"/>
<path d="M0 0 C0.66 0.33 1.32 0.66 2 1 C-0.88341534 5.21422242 -3.04303419 6.76075855 -8 8 C-5.33333333 5.33333333 -2.66666667 2.66666667 0 0 Z " fill="#869BFE" transform="translate(343,204)"/>
<path d="M0 0 C2.8203125 -0.29296875 2.8203125 -0.29296875 6.125 -0.1875 C7.76855469 -0.14689453 7.76855469 -0.14689453 9.4453125 -0.10546875 C10.28835938 -0.07066406 11.13140625 -0.03585937 12 0 C8.88089144 1.79275866 6.32317572 2.34290718 2.75 2.625 C1.85796875 2.69976563 0.9659375 2.77453125 0.046875 2.8515625 C-0.62859375 2.90054687 -1.3040625 2.94953125 -2 3 C-1.34 2.01 -0.68 1.02 0 0 Z " fill="#779AFE" transform="translate(751,1162)"/>
<path d="M0 0 C0 3 0 3 -2.25 5.75 C-3.1575 6.4925 -4.065 7.235 -5 8 C-6.32 7.67 -7.64 7.34 -9 7 C-6.03 4.69 -3.06 2.38 0 0 Z " fill="#94A6FE" transform="translate(828,949)"/>
<path d="M0 0 C1.39195915 4.17587745 -0.17676781 6.13474776 -2 10 C-2.33 10 -2.66 10 -3 10 C-2.88637738 8.5199159 -2.75877092 7.04089926 -2.625 5.5625 C-2.55539063 4.73878906 -2.48578125 3.91507812 -2.4140625 3.06640625 C-2.27742187 2.38449219 -2.14078125 1.70257813 -2 1 C-1.34 0.67 -0.68 0.34 0 0 Z " fill="#6D87FE" transform="translate(218,381)"/>
<path d="M0 0 C0 4.24645065 -1.81750806 6.38524772 -4 10 C-4.87491004 7.5502519 -5.12900603 6.36551707 -4.25 3.875 C-3 2 -3 2 0 0 Z " fill="#7284FE" transform="translate(249,317)"/>
<path d="M0 0 C6.93 0.495 6.93 0.495 14 1 C14 1.33 14 1.66 14 2 C9.38 2.33 4.76 2.66 0 3 C0 2.01 0 1.02 0 0 Z " fill="#86A2FE" transform="translate(578,272)"/>
<path d="M0 0 C0.556875 0.226875 1.11375 0.45375 1.6875 0.6875 C1.0275 0.6875 0.3675 0.6875 -0.3125 0.6875 C-0.3125 1.3475 -0.3125 2.0075 -0.3125 2.6875 C-1.9625 3.3475 -3.6125 4.0075 -5.3125 4.6875 C-5.9725 4.0275 -6.6325 3.3675 -7.3125 2.6875 C-2.88173077 -0.38942308 -2.88173077 -0.38942308 0 0 Z " fill="#8C9AFE" transform="translate(427.3125,150.3125)"/>
<path d="M0 0 C0.33 0 0.66 0 1 0 C1.25 2.3125 1.25 2.3125 1 5 C-1 6.8125 -1 6.8125 -3 8 C-3.66 7.67 -4.32 7.34 -5 7 C-4.19152271 5.83054208 -3.37810888 4.66449539 -2.5625 3.5 C-2.11003906 2.8503125 -1.65757812 2.200625 -1.19140625 1.53125 C-0.79824219 1.0259375 -0.40507812 0.520625 0 0 Z " fill="#889FFE" transform="translate(267,286)"/>
<path d="M0 0 C1.8871875 0.0309375 1.8871875 0.0309375 3.8125 0.0625 C0.12515242 2.52073172 -2.88449971 3.07492616 -7.1875 4.0625 C-7.1875 3.0725 -7.1875 2.0825 -7.1875 1.0625 C-4.43671116 0.14557039 -2.82801087 -0.04636083 0 0 Z " fill="#8F9DFE" transform="translate(792.1875,1152.9375)"/>
<path d="M0 0 C0.33 0 0.66 0 1 0 C1 2.64 1 5.28 1 8 C0.34 8 -0.32 8 -1 8 C-1.33 8.66 -1.66 9.32 -2 10 C-1.125 2.25 -1.125 2.25 0 0 Z " fill="#687CFE" transform="translate(363,463)"/>
<path d="M0 0 C0.99 0.33 1.98 0.66 3 1 C1.02 2.98 -0.96 4.96 -3 7 C-3.66 6.67 -4.32 6.34 -5 6 C-3.35 4.02 -1.7 2.04 0 0 Z " fill="#6F83FE" transform="translate(334,212)"/>
<path d="M0 0 C0.99 0 1.98 0 3 0 C2.34 3.63 1.68 7.26 1 11 C0.67 11 0.34 11 0 11 C0 7.37 0 3.74 0 0 Z " fill="#85A0FE" transform="translate(1077,842)"/>
<path d="M0 0 C0.33 0 0.66 0 1 0 C1.75 3.25 1.75 3.25 2 7 C0.0625 9.4375 0.0625 9.4375 -2 11 C-1.34 7.37 -0.68 3.74 0 0 Z " fill="#839CFE" transform="translate(915,811)"/>
<path d="M0 0 C0.33 0.66 0.66 1.32 1 2 C0.06421005 4.35981813 -0.93347808 6.69631264 -2 9 C-2.33 9 -2.66 9 -3 9 C-3.36923077 3.46153846 -3.36923077 3.46153846 -1.5 1.125 C-1.005 0.75375 -0.51 0.3825 0 0 Z " fill="#7186FE" transform="translate(229,355)"/>
<path d="" fill="#FFFFFF" transform="translate(0,0)"/>
<path d="" fill="#FFFFFF" transform="translate(0,0)"/>
<path d="" fill="#FFFFFF" transform="translate(0,0)"/>
</svg>
